<?xml version="1.0" standalone="no"?>
<svg xmlns:xlink="http://www.w3.org/1999/xlink" id="wave" style="transform:rotate(0deg); transition: 0.3s" viewBox="0 0 1440 490" version="1.1" xmlns="http://www.w3.org/2000/svg"><defs><linearGradient id="sw-gradient-0" x1="0" x2="0" y1="1" y2="0"><stop stop-color="rgba(145.37, 239.383, 169.321, 1)" offset="0%"/><stop stop-color="rgba(65.597, 198.401, 103.929, 1)" offset="100%"/></linearGradient></defs><path style="transform:translate(0, 0px); opacity:1" fill="url(#sw-gradient-0)" d="M0,392L60,359.3C120,327,240,261,360,253.2C480,245,600,294,720,318.5C840,343,960,343,1080,318.5C1200,294,1320,245,1440,187.8C1560,131,1680,65,1800,57.2C1920,49,2040,98,2160,122.5C2280,147,2400,147,2520,155.2C2640,163,2760,180,2880,171.5C3000,163,3120,131,3240,106.2C3360,82,3480,65,3600,98C3720,131,3840,212,3960,220.5C4080,229,4200,163,4320,163.3C4440,163,4560,229,4680,245C4800,261,4920,229,5040,187.8C5160,147,5280,98,5400,73.5C5520,49,5640,49,5760,49C5880,49,6000,49,6120,57.2C6240,65,6360,82,6480,114.3C6600,147,6720,196,6840,253.2C6960,310,7080,376,7200,408.3C7320,441,7440,441,7560,441C7680,441,7800,441,7920,408.3C8040,376,8160,310,8280,285.8C8400,261,8520,278,8580,285.8L8640,294L8640,490L8580,490C8520,490,8400,490,8280,490C8160,490,8040,490,7920,490C7800,490,7680,490,7560,490C7440,490,7320,490,7200,490C7080,490,6960,490,6840,490C6720,490,6600,490,6480,490C6360,490,6240,490,6120,490C6000,490,5880,490,5760,490C5640,490,5520,490,5400,490C5280,490,5160,490,5040,490C4920,490,4800,490,4680,490C4560,490,4440,490,4320,490C4200,490,4080,490,3960,490C3840,490,3720,490,3600,490C3480,490,3360,490,3240,490C3120,490,3000,490,2880,490C2760,490,2640,490,2520,490C2400,490,2280,490,2160,490C2040,490,1920,490,1800,490C1680,490,1560,490,1440,490C1320,490,1200,490,1080,490C960,490,840,490,720,490C600,490,480,490,360,490C240,490,120,490,60,490L0,490Z"/><defs><linearGradient id="sw-gradient-1" x1="0" x2="0" y1="1" y2="0"><stop stop-color="rgba(62, 243, 236.869, 1)" offset="0%"/><stop stop-color="rgba(3.463, 239.383, 63.567, 1)" offset="100%"/></linearGradient></defs><path style="transform:translate(0, 50px); opacity:0.9" fill="url(#sw-gradient-1)" d="M0,147L60,171.5C120,196,240,245,360,253.2C480,261,600,229,720,220.5C840,212,960,229,1080,269.5C1200,310,1320,376,1440,343C1560,310,1680,180,1800,130.7C1920,82,2040,114,2160,138.8C2280,163,2400,180,2520,196C2640,212,2760,229,2880,220.5C3000,212,3120,180,3240,171.5C3360,163,3480,180,3600,212.3C3720,245,3840,294,3960,277.7C4080,261,4200,180,4320,122.5C4440,65,4560,33,4680,32.7C4800,33,4920,65,5040,138.8C5160,212,5280,327,5400,351.2C5520,376,5640,310,5760,294C5880,278,6000,310,6120,310.3C6240,310,6360,278,6480,285.8C6600,294,6720,343,6840,367.5C6960,392,7080,392,7200,392C7320,392,7440,392,7560,367.5C7680,343,7800,294,7920,277.7C8040,261,8160,278,8280,294C8400,310,8520,327,8580,334.8L8640,343L8640,490L8580,490C8520,490,8400,490,8280,490C8160,490,8040,490,7920,490C7800,490,7680,490,7560,490C7440,490,7320,490,7200,490C7080,490,6960,490,6840,490C6720,490,6600,490,6480,490C6360,490,6240,490,6120,490C6000,490,5880,490,5760,490C5640,490,5520,490,5400,490C5280,490,5160,490,5040,490C4920,490,4800,490,4680,490C4560,490,4440,490,4320,490C4200,490,4080,490,3960,490C3840,490,3720,490,3600,490C3480,490,3360,490,3240,490C3120,490,3000,490,2880,490C2760,490,2640,490,2520,490C2400,490,2280,490,2160,490C2040,490,1920,490,1800,490C1680,490,1560,490,1440,490C1320,490,1200,490,1080,490C960,490,840,490,720,490C600,490,480,490,360,490C240,490,120,490,60,490L0,490Z"/></svg>